<svg xmlns="http://www.w3.org/2000/svg" viewBox="0 0 200 200" fill="none" role="img" aria-label="Car Wash Pipera">
  <g fill="#C8CCD2">
    <path d="M 94.53 17.97 L 110.74 21.88 L 118.55 68.75 L 107.81 74.61 L 98.05 71.68 L 86.33 45.31 Z"/>
    <path d="M 168.31 54.25 L 173.03 70.24 L 136.34 100.44 L 125.90 94.07 L 123.55 84.15 L 140.52 60.82 Z"/>
    <path d="M 173.78 136.28 L 162.29 148.37 L 117.79 131.69 L 118.08 119.46 L 125.50 112.47 L 154.20 115.50 Z"/>
    <path d="M 105.47 182.03 L 89.26 178.12 L 81.45 131.25 L 92.19 125.39 L 101.95 128.32 L 113.67 154.69 Z"/>
    <path d="M 31.69 145.75 L 26.97 129.76 L 63.66 99.56 L 74.10 105.93 L 76.45 115.85 L 59.48 139.18 Z"/>
    <path d="M 26.22 63.72 L 37.71 51.63 L 82.21 68.31 L 81.92 80.54 L 74.50 87.53 L 45.80 84.50 Z"/>
  </g>
</svg>
