<svg xmlns="http://www.w3.org/2000/svg" viewBox="0 0 32 32" fill="none">
  <rect width="32" height="32" fill="#0a0a0c"/>
  <g fill="#C8CCD2" transform="translate(16 16) scale(0.065) translate(-512 -512)">
    <path d="M484 92 L567 112 L607 352 L552 382 L502 367 L442 232 Z"/>
    <path d="M932 484 L912 567 L672 607 L642 552 L657 502 L792 442 Z" transform="rotate(60 512 512)"/>
    <path d="M932 484 L912 567 L672 607 L642 552 L657 502 L792 442 Z" transform="rotate(120 512 512)"/>
    <path d="M932 484 L912 567 L672 607 L642 552 L657 502 L792 442 Z" transform="rotate(180 512 512)"/>
    <path d="M932 484 L912 567 L672 607 L642 552 L657 502 L792 442 Z" transform="rotate(240 512 512)"/>
    <path d="M932 484 L912 567 L672 607 L642 552 L657 502 L792 442 Z" transform="rotate(300 512 512)"/>
  </g>
</svg>
